<?xml version="1.0" encoding="UTF-8" standalone="no"?>
<svg
   xmlns:dc="http://purl.org/dc/elements/1.1/"
   xmlns:cc="http://creativecommons.org/ns#"
   xmlns:rdf="http://www.w3.org/1999/02/22-rdf-syntax-ns#"
   xmlns:svg="http://www.w3.org/2000/svg"
   xmlns="http://www.w3.org/2000/svg"
   xmlns:sodipodi="http://sodipodi.sourceforge.net/DTD/sodipodi-0.dtd"
   xmlns:inkscape="http://www.inkscape.org/namespaces/inkscape"
   version="1.0"
   width="225.000000pt"
   height="225.000000pt"
   viewBox="0 0 225.000000 225.000000"
   preserveAspectRatio="xMidYMid meet"
   id="svg3731"
   sodipodi:docname="doc_inv.svg"
   inkscape:version="0.92.3 (2405546, 2018-03-11)">
  <defs
     id="defs3735" />
  <sodipodi:namedview
     pagecolor="#ffffff"
     bordercolor="#666666"
     borderopacity="1"
     objecttolerance="10"
     gridtolerance="10"
     guidetolerance="10"
     inkscape:pageopacity="0"
     inkscape:pageshadow="2"
     inkscape:window-width="1920"
     inkscape:window-height="1017"
     id="namedview3733"
     showgrid="false"
     inkscape:zoom="2.8266667"
     inkscape:cx="107.37028"
     inkscape:cy="150"
     inkscape:window-x="1912"
     inkscape:window-y="-8"
     inkscape:window-maximized="1"
     inkscape:current-layer="svg3731" />
  <metadata
     id="metadata3725">
Created by potrace 1.15, written by Peter Selinger 2001-2017
<rdf:RDF>
  <cc:Work
     rdf:about="">
    <dc:format>image/svg+xml</dc:format>
    <dc:type
       rdf:resource="http://purl.org/dc/dcmitype/StillImage" />
    <dc:title></dc:title>
  </cc:Work>
</rdf:RDF>
</metadata>
  <path
     style="fill:#FFFFFF;stroke-width:0.35377359"
     d="M 23.418668,87.499999 C 17.484292,79.109505 12.841981,72.187129 12.841981,71.728585 c 0,-2.44465 32.593625,-17.828303 55.305626,-26.103341 C 96.70466,35.22058 144.20366,20.731132 149.75494,20.731132 c 1.80385,0 1.89679,0.664451 1.92118,13.73523 l 0.022,11.789475 -11.85141,3.903753 C 96.138021,64.556851 71.564901,74.114254 38.963619,89.396788 c -5.771661,2.705589 -10.547604,4.916596 -10.613208,4.913352 -0.0656,-0.0032 -2.284888,-3.067804 -4.931743,-6.810141 z"
     id="path3743"
     inkscape:connector-curvature="0"
     transform="scale(0.75)" />
  <path
     style="fill:#FFFFFF;stroke-width:0.35377359"
     d="m 38.100671,107.68522 c -1.536737,-2.18115 -2.844722,-4.08429 -2.906633,-4.22921 -0.391969,-0.91748 30.629341,-14.656387 55.002313,-24.359756 10.259229,-4.084407 17.594349,-6.746098 36.030069,-13.074214 19.27139,-6.614967 24.08925,-8.076363 24.68043,-7.486288 0.30745,0.306873 0.43749,1.967908 0.43749,5.588064 v 5.151392 l -5.3066,1.946656 c -17.26574,6.333704 -26.35872,9.834467 -64.563683,24.85679 -11.966392,4.705226 -25.498232,9.979646 -30.070755,11.720926 -4.572524,1.74128 -8.679366,3.32018 -9.126316,3.50866 -0.44695,0.18849 -0.940799,0.3427 -1.097442,0.3427 -0.156643,0 -1.542135,-1.78457 -3.078873,-3.96572 z"
     id="path3759"
     inkscape:connector-curvature="0"
     transform="scale(0.75)" />
  <path
     style="fill:#FFFFFF;stroke-width:0.35377359"
     d="m 11.426887,144.58436 c 0,-0.38863 8.551416,-7.23929 12.735849,-10.20287 9.674258,-6.85168 22.639181,-12.75168 65.271226,-29.70325 61.365688,-24.400525 78.649318,-30.137549 100.471698,-33.349974 5.91794,-0.871166 12.91274,-1.32542 12.91274,-0.838575 0,1.476678 -11.32457,8.712911 -26.99154,17.247207 -44.79742,24.402562 -118.162197,52.097132 -150.072143,56.650932 -3.922992,0.55985 -14.32783,0.70256 -14.32783,0.19653 z"
     id="path3761"
     inkscape:connector-curvature="0"
     transform="scale(0.75)" />
  <path
     style="fill:#FFFFFF;stroke-width:0.35377359"
     d="m 282.76454,218.00575 c -2.62309,-1.23952 -9.06761,-4.32006 -14.32114,-6.84565 -10.08708,-4.84925 -14.79419,-6.83416 -22.29066,-9.39958 -13.49524,-4.6183 -28.69043,-7.03232 -40.68104,-6.46291 -15.59966,0.74081 -26.99573,3.0261 -49.5283,9.93209 -13.43627,4.11807 -16.03422,4.79107 -19.37167,5.01825 -3.05928,0.20824 -3.13219,0.19403 -5.82088,-1.13479 -4.84894,-2.39648 -9.44405,-7.85503 -11.70022,-13.89874 -0.75253,-2.01585 -0.91115,-3.15579 -1.05537,-7.58424 -0.20454,-6.28094 -0.028,-7.09864 2.76476,-12.80893 1.15805,-2.36779 2.10555,-4.46904 2.10555,-4.66945 0,-0.20041 -1.79098,-1.37916 -3.97996,-2.61944 -9.55641,-5.41472 -18.49034,-12.80643 -24.56824,-20.32717 -2.279568,-2.82072 -5.414068,-7.75752 -5.414068,-8.52709 0,-0.45405 42.727348,-17.6631 43.056478,-17.34162 0.0402,0.0392 -0.32157,1.33857 -0.80382,2.88746 -2.49736,8.02104 -2.82716,18.47818 -0.82915,26.29031 1.61123,6.29985 5.35526,11.33691 10.09529,13.58176 2.30562,1.09193 2.64258,1.15163 6.50007,1.15163 3.94447,0 4.14996,-0.0389 6.74599,-1.27874 2.87782,-1.37438 6.49179,-4.45796 8.61562,-7.35119 2.87581,-3.91764 5.76914,-11.35453 6.57919,-16.91087 0.26662,-1.82883 0.36319,-5.42083 0.26156,-9.72877 -0.13422,-5.68945 -0.27996,-7.15429 -0.87305,-8.77524 -1.21939,-3.33261 -3.16058,-6.86434 -5.42383,-9.8679 -1.19695,-1.58847 -2.09288,-3.10543 -1.99096,-3.37102 0.24717,-0.64414 4.46027,-2.61253 6.18057,-2.88762 1.31516,-0.2103 1.43223,-0.14446 2.97717,1.67433 3.87659,4.56375 5.87446,8.68515 10.33123,21.31232 l 2.8583,8.09832 6.85175,1.86226 c 8.14988,2.21507 11.70507,3.44309 18.08929,6.24832 17.38215,7.63772 35.77336,20.5012 50.96997,35.65028 6.68021,6.65931 9.80258,10.23007 14.54564,16.63448 6.36538,8.59498 14.79099,21.88761 14.79099,23.33497 0,0.67212 -0.85848,0.38645 -5.66706,-1.88582 z"
     id="path3763"
     inkscape:connector-curvature="0"
     transform="scale(0.75)" />
  <path
     style="fill:#FFFFFF;stroke-width:0.35377359"
     d="m 144.11219,153.53583 c -2.33018,-1.96072 -4.53532,-7.34495 -4.87116,-11.89381 -0.56337,-7.63056 3.3829,-17.77451 8.88933,-22.85017 2.66043,-2.4523 4.02482,-2.29026 6.8902,0.81832 3.71888,4.03451 4.79778,10.66365 3.06266,18.81814 -2.36849,11.1311 -9.514,18.85787 -13.97103,15.10752 z"
     id="path3765"
     inkscape:connector-curvature="0"
     transform="scale(0.75)" />
  <path
     style="fill:#FFFFFF;stroke-width:0.35377359"
     d="m 125.51887,230.73904 c -16.96683,-6.25706 -31.216346,-13.73815 -48.11321,-25.25977 -9.420111,-6.42338 -14.794118,-10.77498 -18.141538,-14.69011 -4.187538,-4.89773 -9.089879,-16.91065 -11.053535,-27.08608 -0.747964,-3.87586 -1.021308,-8.83789 -0.562785,-10.21625 0.318961,-0.95883 3.411239,-2.50582 9.946538,-4.97601 6.466843,-2.44432 16.47678,-5.69691 18.287324,-5.9422 1.830943,-0.24806 1.755281,-0.32075 5.931191,5.69789 7.231769,10.42298 13.468875,16.92074 22.123795,23.04837 l 3.42281,2.42333 -0.2953,4.59905 c -0.48765,7.59501 -0.26461,14.423 0.57784,17.68868 2.17801,8.44294 8.26115,16.39957 16.72598,21.87725 2.59465,1.67903 4.42401,3.12502 4.86995,3.84938 1.57267,2.55456 3.60382,11.28364 2.61157,11.22354 -0.17406,-0.0105 -3.02285,-1.01722 -6.33063,-2.23707 z"
     id="path3767"
     inkscape:connector-curvature="0"
     transform="scale(0.75)" />
  <path
     style="fill:#FFFFFF;stroke-width:0.35377359"
     d="M 149.2217,281.07174 C 109.45474,266.12327 71.418188,248.38354 53.525943,236.44053 42.392925,229.00929 31.738154,219.66934 25.640832,211.9965 c -1.202104,-1.51272 -2.185345,-2.85937 -2.18498,-2.99255 3.65e-4,-0.13319 1.552546,-0.78823 3.449292,-1.45565 4.394671,-1.54638 9.658279,-4.17391 12.390225,-6.18505 2.674666,-1.96898 4.821518,-3.32886 5.906508,-3.74138 1.041215,-0.39587 3.815356,1.31691 17.048944,10.52613 31.493816,21.91647 45.856499,29.17474 73.997929,37.3953 3.7611,1.09868 7.20022,2.16247 7.64248,2.36397 0.67961,0.30965 0.98369,1.11443 1.96391,5.19772 2.00016,8.33202 3.94273,14.11076 7.83534,23.3085 1.33639,3.15773 2.4298,5.9835 2.4298,6.27949 0,0.84946 -0.86944,0.64513 -6.89858,-1.62124 z"
     id="path3769"
     inkscape:connector-curvature="0"
     transform="scale(0.75)" />
  <path
     style="fill:#FFFFFF;stroke-width:0.35377359"
     d="m 14.965331,284.07038 c 0.0014,-1.94903 1.770743,-13.08129 2.853377,-17.95232 1.538233,-6.92087 4.619329,-17.48576 6.644623,-22.78399 2.807499,-7.34452 3.984592,-9.98501 4.451163,-9.98501 0.242247,0 2.495964,1.4204 5.00826,3.15644 12.181388,8.41756 15.192904,10.4252 19.813589,13.20883 13.150037,7.92196 23.538393,12.95904 59.669467,28.9324 9.84916,4.35426 12.17334,5.50702 11.67453,5.79038 -0.40467,0.22988 -19.79672,0.40556 -55.369255,0.5016 l -54.746462,0.14781 7.07e-4,-1.01614 z"
     id="path3771"
     inkscape:connector-curvature="0"
     transform="scale(0.75)" />
</svg>
